PathFileType	4	(X/Y/Z)	s04c0401.trc
DataRate	CameraRate	NumFrames	NumMarkers	Units	OrigDataRate	OrigDataStartFrame	OrigNumFrames
200	200	4	50	mm	200	1000	2000
Frame#	Time	racr			lacr			c7			jug			rlel			rdr			llel			ldr			s2			lic			ric			lasi			rasi			rpsi			lpsi			rgt			lgt			rth1			rth2			rth3			rth4			rlfc			rmfc			rsh1			rsh2			rsh3			rsh4			rlmal			rmmal			rcal			rtoe			rmt5			lth1			lth2			lth4			lth3			llfc			lmfc			lsh1			lsh2			lsh3			lsh4			llmal			lmmal			lcal			ltoe			lmt5			SBIKE			LBIKE			RBIKE			
		X1	Y1	Z1	X2	Y2	Z2	X3	Y3	Z3	X4	Y4	Z4	X5	Y5	Z5	X6	Y6	Z6	X7	Y7	Z7	X8	Y8	Z8	X9	Y9	Z9	X10	Y10	Z10	X11	Y11	Z11	X12	Y12	Z12	X13	Y13	Z13	X14	Y14	Z14	X15	Y15	Z15	X16	Y16	Z16	X17	Y17	Z17	X18	Y18	Z18	X19	Y19	Z19	X20	Y20	Z20	X21	Y21	Z21	X22	Y22	Z22	X23	Y23	Z23	X24	Y24	Z24	X25	Y25	Z25	X26	Y26	Z26	X27	Y27	Z27	X28	Y28	Z28	X29	Y29	Z29	X30	Y30	Z30	X31	Y31	Z31	X32	Y32	Z32	X33	Y33	Z33	X34	Y34	Z34	X35	Y35	Z35	X36	Y36	Z36	X37	Y37	Z37	X38	Y38	Z38	X39	Y39	Z39	X40	Y40	Z40	X41	Y41	Z41	X42	Y42	Z42	X43	Y43	Z43	X44	Y44	Z44	X45	Y45	Z45	X46	Y46	Z46	X47	Y47	Z47	X48	Y48	Z48	X49	Y49	Z49	X50	Y50	Z50	
1000	5.0000	842.924776	1283.055664	-120.020578	836.799713	1249.567867	-456.859853	874.280199	1348.254092	-298.129699	794.676480	1212.537447	-284.905737	565.689012	1163.200611	17.791297	696.538573	938.552883	-86.547845	583.575995	1161.687637	-598.628520	687.201369	941.370365	-502.609265	272.053996	1274.382545	-306.554207	424.727537	1219.351494	-458.932608	418.038141	1273.917628	-140.102878	451.334067	1167.720512	-410.931755	445.822857	1203.560703	-171.852770	308.435023	1315.863031	-268.141248	311.812934	1305.426482	-345.103823	365.848971	1221.672281	-116.357572	347.925896	1131.378709	-463.819155	449.438126	1079.416414	-98.076462	510.312198	1015.848662	-104.811100	534.640111	933.944374	-103.566040	536.868788	1032.074300	-125.952844	574.772700	798.312263	-124.430357	551.948613	785.465458	-237.025939	460.890151	753.326101	-100.449420	389.180019	698.279819	-116.266533	303.591852	691.745757	-124.058047	405.025599	670.920104	-138.014111	167.600028	620.213445	-133.905342	191.517927	606.248824	-218.219601	104.717625	654.417001	-178.140722	257.343838	392.651796	-163.462345	200.959043	438.004898	-111.187413	355.367623	1040.676084	-475.905440	393.467810	962.387225	-477.477736	429.021661	970.035767	-473.430152	387.341340	873.877103	-471.932089	407.789586	710.040890	-453.703082	424.110763	683.455696	-342.982661	372.182704	586.213040	-474.105277	362.982138	501.980570	-455.138623	313.493038	428.449347	-456.063066	390.096530	494.995350	-426.567010	261.076764	290.154027	-454.541920	254.922161	292.883907	-366.206253	179.926818	300.362917	-418.225794	451.253336	163.694586	-408.496743	374.382640	159.858054	-473.171264	-185.408465	934.662709	-287.228461	-17.527080	79.161219	-485.540612	-17.491555	79.456176	-84.876056	
1001	5.0050	843.968998	1283.097782	-118.437335	836.679874	1250.244421	-455.402025	874.373991	1348.311173	-296.367334	795.114767	1212.445239	-282.813750	566.189999	1162.991059	18.837615	696.607939	938.634610	-86.556965	584.316891	1161.951793	-597.201492	687.657090	941.104777	-502.871847	272.384136	1273.453972	-309.417009	427.181790	1216.851220	-459.126986	416.297871	1275.026002	-141.083785	452.638462	1165.252952	-410.156272	445.045134	1204.573098	-171.783800	308.293196	1315.199953	-271.205889	312.702831	1304.147331	-347.874452	364.773124	1223.102337	-117.492047	348.509200	1129.202105	-464.347525	451.211708	1082.592961	-98.796793	512.901137	1019.801117	-105.327956	539.121308	938.615267	-104.348743	539.392689	1036.894422	-126.808919	581.942834	803.689108	-125.124652	559.183620	790.396255	-237.999575	468.382659	758.888389	-101.874433	396.533100	704.025028	-117.174662	310.955174	697.677608	-124.838356	412.475175	676.187972	-138.911975	175.278347	625.898098	-134.539579	198.917120	612.174365	-218.868930	111.627343	659.680340	-178.856519	267.148396	399.609473	-163.866878	210.488112	444.662995	-111.600194	353.709536	1038.918978	-476.621103	389.809744	959.698706	-478.094003	425.509750	966.407203	-473.761360	381.361889	871.397303	-472.600221	397.718594	706.812985	-453.968412	413.588977	680.508031	-343.062910	362.063215	582.689764	-474.344759	353.695881	498.462876	-455.380623	304.795525	424.552124	-456.171053	380.985378	491.665665	-426.963067	253.496588	285.822187	-454.509297	247.447727	287.839881	-366.754421	173.210099	297.064790	-418.074892	442.414543	156.186144	-408.303808	365.484812	153.533783	-473.018443	-185.437081	934.644239	-287.167208	-17.518744	79.155842	-485.541613	-17.465601	79.443314	-84.869675	
1002	5.0100	844.950455	1283.021713	-116.901579	836.602881	1250.826204	-453.929159	874.481606	1348.408562	-294.868496	795.631638	1212.350267	-281.057014	566.681580	1162.762911	19.853363	696.658324	938.721796	-86.504508	585.040368	1162.381097	-596.333513	688.088554	940.806867	-503.114129	272.748056	1272.567156	-312.315665	429.578776	1214.371897	-459.178316	414.478791	1276.192303	-142.041477	453.795624	1162.731038	-409.081319	444.143808	1205.580669	-171.518207	308.270139	1314.500116	-274.299206	313.570525	1302.648503	-350.815255	363.690380	1224.712105	-118.423267	349.114146	1127.218658	-464.927606	452.717460	1085.683977	-99.001755	515.951645	1024.465958	-106.239525	543.380954	943.330216	-104.967609	541.761696	1041.728840	-127.673123	589.176865	809.025815	-125.895067	566.246866	795.687345	-239.215510	475.912958	764.531539	-103.025619	404.005453	709.575038	-117.996461	318.455392	703.102833	-125.589208	419.749455	682.197808	-139.611208	183.031938	631.074384	-135.133114	206.556743	617.563443	-219.428695	118.747799	664.195735	-179.235138	277.128477	405.953677	-164.299505	220.201834	450.571061	-112.008565	352.181365	1037.482274	-477.476461	386.270522	957.328387	-478.786217	422.073103	963.168353	-474.169999	375.297760	869.315352	-473.349116	387.717843	704.076904	-454.366217	403.384917	677.945131	-343.330788	352.080508	579.777576	-474.629732	344.482215	495.472562	-455.722879	296.015401	421.219801	-456.343895	371.892934	488.813628	-427.403521	245.764083	282.133213	-454.457406	239.898745	283.653320	-367.340568	166.335104	294.475769	-417.834834	433.269250	149.154165	-408.280656	356.237808	147.767311	-472.893202	-185.444179	934.652310	-287.147898	-17.514316	79.154087	-485.530241	-17.460645	79.435745	-84.850814	
1003	5.0150	845.815995	1282.916360	-115.438031	836.588998	1251.495380	-452.429574	874.539489	1348.485383	-293.300891	796.104644	1212.225273	-279.308904	567.060460	1162.548115	20.918352	696.691406	938.888018	-86.466180	585.804534	1162.809888	-595.769394	688.431152	940.396877	-503.261789	272.811122	1271.871002	-315.132890	431.908721	1211.897822	-459.055930	412.660006	1277.341479	-143.065757	454.898032	1160.508504	-408.166311	443.042033	1206.516241	-171.315040	308.503494	1314.194620	-277.379259	314.643881	1301.258999	-353.952083	362.486841	1226.399570	-119.322627	349.728680	1125.475952	-465.606971	454.219466	1088.867193	-99.441794	518.581439	1028.831226	-106.749355	547.570745	948.255829	-105.808304	543.767357	1046.464888	-128.535872	596.399923	815.168114	-126.812704	573.507296	800.890554	-239.721639	483.448746	770.129306	-104.257142	411.684321	714.849614	-118.826133	326.082289	708.266781	-126.215359	427.654907	686.942707	-140.528861	190.982963	635.616573	-135.662780	214.395566	622.580195	-220.030479	126.092827	668.143529	-179.520403	287.598507	411.765669	-164.733296	230.169755	455.879024	-112.472154	350.704945	1036.282437	-478.382877	382.737246	955.294854	-479.625268	418.634832	960.178677	-474.745759	369.764559	867.499400	-474.394726	377.887463	701.682975	-454.860911	393.565120	675.927850	-343.702001	342.095242	577.477261	-474.823527	335.255134	492.985275	-456.156149	287.295655	418.423705	-456.482216	363.104695	486.430904	-427.751415	237.938339	279.096360	-454.353508	232.295202	280.288309	-367.488481	159.346164	292.676139	-417.597539	423.783030	142.513113	-408.174279	346.701676	142.517256	-472.723530	-185.425542	934.674901	-287.064880	-17.516101	79.135757	-485.541424	-17.471391	79.455215	-84.883431	
